<svg width="20" height="20" viewBox="0 0 24 24" fill="none" xmlns="http://www.w3.org/2000/svg">
	<path fill-rule="evenodd" clip-rule="evenodd" d="M3.44556 11.2131C3.44556 11.8971 2.89156 12.4519 2.20713 12.4519C1.52325 12.4519 0.968625 11.8971 0.968625 11.2132C0.968625 10.5292 1.52325 9.97494 2.20713 9.97494C2.8915 9.97494 3.44556 10.5292 3.44556 11.2131ZM23.1276 11.2131C23.1276 11.8971 22.5729 12.4519 21.8894 12.4519C21.2053 12.4519 20.6506 11.8971 20.6506 11.2132C20.6506 10.5292 21.2053 9.97494 21.8894 9.97494C22.5729 9.97494 23.1276 10.5292 23.1276 11.2131ZM13.2866 16.1003C13.2866 16.7842 12.732 17.339 12.0483 17.339C11.3642 17.339 10.8096 16.7842 10.8096 16.1003C10.8096 15.4164 11.3642 14.862 12.0483 14.862C12.732 14.862 13.2866 15.4164 13.2866 16.1003ZM8.33263 13.6904C8.33263 14.3741 7.77831 14.9289 7.094 14.9289C6.40994 14.9289 5.85563 14.3741 5.85563 13.6904C5.85563 13.0062 6.41 12.4519 7.094 12.4519C7.77837 12.4519 8.33263 13.0062 8.33263 13.6904ZM18.1736 13.6904C18.1736 14.3741 17.6191 14.9289 16.9353 14.9289C16.2509 14.9289 15.6966 14.3741 15.6966 13.6904C15.6966 13.0062 16.251 12.4519 16.9353 12.4519C17.6191 12.4519 18.1736 13.0062 18.1736 13.6904ZM3.04394 14.9627C3.04394 15.4241 2.66956 15.7992 2.20756 15.7992C1.74494 15.7992 1.37031 15.4241 1.37031 14.9627C1.37031 14.5002 1.74494 14.1256 2.20756 14.1256C2.66962 14.1256 3.04394 14.5001 3.04394 14.9627ZM22.7259 14.9627C22.7259 15.4241 22.3511 15.7992 21.8891 15.7992C21.4269 15.7992 21.0523 15.4241 21.0523 14.9627C21.0523 14.5002 21.4269 14.1256 21.8891 14.1256C22.3511 14.1256 22.7259 14.5001 22.7259 14.9627ZM12.8849 19.9158C12.8849 20.3781 12.5099 20.7532 12.0484 20.7532C11.5866 20.7532 11.2113 20.3781 11.2113 19.9158C11.2113 19.4539 11.5866 19.0796 12.0484 19.0796C12.5099 19.0796 12.8849 19.4538 12.8849 19.9158ZM7.93094 17.4397C7.93094 17.9018 7.55638 18.2762 7.09444 18.2762C6.63219 18.2762 6.25731 17.9018 6.25731 17.4397C6.25731 16.9773 6.63219 16.6026 7.09444 16.6026C7.55638 16.6026 7.93094 16.9773 7.93094 17.4397ZM17.7719 17.4397C17.7719 17.9018 17.3969 18.2762 16.9356 18.2762C16.4731 18.2762 16.0983 17.9018 16.0983 17.4397C16.0983 16.9773 16.4731 16.6026 16.9356 16.6026C17.3969 16.6026 17.7719 16.9773 17.7719 17.4397ZM2.64225 17.9076C2.64225 18.023 2.5964 18.1337 2.5148 18.2153C2.43319 18.2969 2.3225 18.3427 2.20709 18.3427C2.09168 18.3427 1.981 18.2969 1.89939 18.2153C1.81778 18.1337 1.77194 18.023 1.77194 17.9076C1.77195 17.8504 1.78323 17.7939 1.80512 17.7411C1.82701 17.6883 1.85908 17.6404 1.89951 17.6C1.93994 17.5596 1.98793 17.5276 2.04073 17.5058C2.09353 17.484 2.15012 17.4728 2.20725 17.4729C2.26436 17.4728 2.32091 17.4841 2.37368 17.5059C2.42646 17.5277 2.47441 17.5597 2.5148 17.6001C2.5552 17.6405 2.58725 17.6884 2.60911 17.7412C2.63098 17.7939 2.64224 17.8505 2.64225 17.9076ZM22.3242 17.9076C22.3242 18.023 22.2784 18.1337 22.1968 18.2153C22.1152 18.2969 22.0045 18.3427 21.8891 18.3427C21.7737 18.3427 21.663 18.2969 21.5814 18.2153C21.4998 18.1337 21.4539 18.023 21.4539 17.9076C21.4539 17.8504 21.4652 17.7938 21.4871 17.7411C21.509 17.6883 21.541 17.6403 21.5815 17.6C21.6219 17.5596 21.6699 17.5276 21.7227 17.5058C21.7755 17.484 21.8321 17.4728 21.8892 17.4729C22.1291 17.4729 22.3242 17.6674 22.3242 17.9076ZM12.4832 22.8617C12.4832 23.1021 12.2881 23.2971 12.0483 23.2971C11.9328 23.2971 11.8221 23.2512 11.7405 23.1695C11.6589 23.0879 11.613 22.9771 11.613 22.8617C11.613 22.8045 11.6243 22.748 11.6461 22.6952C11.668 22.6424 11.7001 22.5944 11.7405 22.5541C11.7809 22.5137 11.8289 22.4816 11.8817 22.4598C11.9345 22.438 11.9911 22.4268 12.0483 22.4268C12.1636 22.4268 12.2742 22.4726 12.3558 22.5542C12.4374 22.6357 12.4832 22.7463 12.4832 22.8617ZM7.52931 20.385C7.52923 20.5004 7.48333 20.6111 7.40171 20.6927C7.32009 20.7742 7.20941 20.8201 7.094 20.8201C6.97864 20.82 6.86803 20.7741 6.78647 20.6926C6.70491 20.611 6.65907 20.5004 6.659 20.385C6.65898 20.3279 6.67022 20.2713 6.69208 20.2185C6.71393 20.1657 6.74597 20.1177 6.78636 20.0773C6.82676 20.0369 6.87472 20.0049 6.9275 19.983C6.98029 19.9611 7.03686 19.9499 7.094 19.9499C7.15116 19.9498 7.20776 19.9611 7.26058 19.9829C7.3134 20.0048 7.36139 20.0368 7.40182 20.0772C7.44225 20.1176 7.47431 20.1656 7.49619 20.2184C7.51807 20.2712 7.52932 20.3278 7.52931 20.385ZM17.3703 20.385C17.3703 20.6251 17.1751 20.8201 16.9353 20.8201C16.8782 20.8202 16.8215 20.8089 16.7687 20.7871C16.7159 20.7652 16.6679 20.7332 16.6275 20.6928C16.587 20.6524 16.555 20.6044 16.5331 20.5516C16.5112 20.4988 16.5 20.4422 16.5 20.385C16.4999 20.3278 16.5111 20.2712 16.533 20.2184C16.5548 20.1655 16.5869 20.1175 16.6273 20.0771C16.6678 20.0367 16.7158 20.0046 16.7687 19.9828C16.8215 19.961 16.8781 19.9498 16.9353 19.9499C16.9924 19.9499 17.049 19.9611 17.1018 19.983C17.1546 20.0049 17.2025 20.0369 17.2429 20.0773C17.2833 20.1178 17.3154 20.1657 17.3372 20.2185C17.3591 20.2713 17.3703 20.3279 17.3703 20.385ZM13.6883 1.67375C13.6883 2.59825 12.9389 3.34731 12.0151 3.34731C11.0904 3.34731 10.341 2.59825 10.341 1.67375C10.341 0.749375 11.0904 0 12.0151 0C12.9389 0 13.6883 0.749438 13.6883 1.67375ZM13.6882 6.62762C13.6882 7.552 12.9389 8.30125 12.0151 8.30125C11.0904 8.30125 10.341 7.552 10.341 6.62762C10.341 5.7035 11.0904 4.954 12.0151 4.954C12.9389 4.954 13.6882 5.7035 13.6882 6.62762ZM13.6882 11.5149C13.6882 12.4389 12.9389 13.1883 12.0151 13.1883C11.0904 13.1883 10.341 12.4389 10.341 11.5149C10.341 10.5904 11.0904 9.841 12.0151 9.841C12.9389 9.841 13.6882 10.5904 13.6882 11.5149ZM23.5293 6.62762C23.5293 7.552 22.7799 8.30125 21.8558 8.30125C20.9313 8.30125 20.1821 7.552 20.1821 6.62762C20.1821 5.7035 20.9313 4.954 21.8558 4.954C22.78 4.954 23.5293 5.7035 23.5293 6.62762ZM3.84725 6.62762C3.84725 7.552 3.09812 8.30125 2.17381 8.30125C1.24937 8.30125 0.5 7.552 0.5 6.62762C0.5 5.7035 1.24944 4.954 2.17375 4.954C3.09812 4.954 3.84725 5.7035 3.84725 6.62762ZM8.80125 4.15063C8.80125 5.07488 8.05206 5.82425 7.12763 5.82425C6.20319 5.82425 5.454 5.07488 5.454 4.15063C5.454 3.22575 6.20319 2.477 7.12763 2.477C8.052 2.477 8.80125 3.22575 8.80125 4.15063ZM8.80125 9.0375C8.80125 9.96188 8.05206 10.7113 7.12763 10.7113C6.20319 10.7113 5.454 9.96188 5.454 9.0375C5.454 8.11344 6.20319 7.364 7.12763 7.364C8.052 7.364 8.80125 8.11344 8.80125 9.0375ZM18.6423 4.15063C18.6423 5.07488 17.8929 5.82425 16.9685 5.82425C16.0441 5.82425 15.295 5.07488 15.295 4.15063C15.295 3.22575 16.0441 2.477 16.9685 2.477C17.8929 2.477 18.6423 3.22575 18.6423 4.15063ZM18.6423 9.0375C18.6423 9.96188 17.8929 10.7113 16.9685 10.7113C16.0441 10.7113 15.295 9.96188 15.295 9.0375C15.295 8.11344 16.0441 7.364 16.9685 7.364C17.8929 7.364 18.6423 8.11344 18.6423 9.0375Z" fill="#141414"/>
</svg>
